<?xml version="1.0" standalone="no"?>
<!DOCTYPE svg PUBLIC "-//W3C//DTD SVG 20010904//EN"
 "http://www.w3.org/TR/2001/REC-SVG-20010904/DTD/svg10.dtd">
<svg version="1.0" xmlns="http://www.w3.org/2000/svg"
 width="500.000000pt" height="500.000000pt" viewBox="0 0 500.000000 500.000000"
 preserveAspectRatio="xMidYMid meet">

<g transform="translate(0.000000,500.000000) scale(0.100000,-0.100000)"
fill="#000000" stroke="none">
<path d="M2568 3237 c-21 -51 -48 -121 -61 -157 -13 -36 -43 -112 -65 -170
-57 -149 -57 -147 -44 -135 5 6 34 71 62 145 53 137 102 263 139 358 11 28 17
52 13 52 -4 0 -24 -42 -44 -93z"/>
<path d="M2336 3215 c-8 -9 -37 -32 -63 -52 -26 -20 -54 -43 -61 -50 -7 -7
-16 -13 -20 -13 -14 0 -73 -59 -68 -68 3 -5 24 -22 48 -38 23 -16 54 -39 68
-51 61 -52 115 -92 120 -86 3 3 -4 11 -16 19 -48 32 -199 157 -199 164 0 4 47
45 105 90 94 73 122 100 107 100 -3 0 -12 -7 -21 -15z"/>
<path d="M2641 3216 c20 -20 204 -156 211 -156 4 0 8 -9 8 -20 0 -11 -4 -20
-9 -20 -4 0 -44 -27 -87 -61 -44 -34 -88 -67 -98 -75 -11 -7 -17 -17 -13 -20
3 -4 39 20 79 52 40 33 90 71 110 87 21 15 38 31 38 35 0 12 -216 182 -231
182 -7 0 -10 -2 -8 -4z"/>
<path d="M2184 2576 c-3 -13 -4 -56 -2 -95 3 -62 1 -71 -14 -71 -10 0 -18 7
-18 15 0 11 -11 15 -40 15 -29 0 -40 -4 -40 -15 0 -8 -9 -15 -20 -15 -20 0
-21 -5 -19 -120 1 -110 3 -120 20 -120 12 0 19 -7 19 -20 0 -17 7 -20 40 -20
33 0 40 3 40 20 0 17 -7 20 -40 20 l-40 0 0 115 0 115 40 0 c33 0 40 -3 40
-20 0 -12 7 -20 18 -20 15 0 17 -10 17 -75 0 -65 -2 -75 -17 -75 -25 0 -23
-36 2 -43 13 -3 18 -10 14 -21 -5 -12 0 -16 20 -16 l26 0 0 235 c0 228 -1 235
-20 235 -12 0 -22 -9 -26 -24z"/>
<path d="M3450 2365 l1 -235 25 0 24 0 0 115 c0 96 3 115 15 115 8 0 15 9 15
20 0 17 7 20 40 20 l40 0 1 -122 c1 -68 1 -129 0 -135 -1 -7 7 -13 19 -13 19
0 20 6 20 140 0 133 -1 140 -20 140 -11 0 -20 7 -20 15 0 11 -11 15 -40 15
-29 0 -40 -4 -40 -15 0 -8 -8 -15 -17 -15 -16 0 -18 10 -15 95 l3 95 -26 0
-26 0 1 -235z"/>
<path d="M1080 2540 c0 -13 7 -20 20 -20 19 0 20 -7 20 -175 0 -168 -1 -175
-20 -175 -13 0 -20 -7 -20 -20 0 -18 7 -20 60 -20 53 0 60 2 60 20 0 11 -7 20
-15 20 -13 0 -15 26 -15 175 0 149 2 175 15 175 8 0 15 9 15 20 0 18 -7 20
-60 20 -53 0 -60 -2 -60 -20z"/>
<path d="M1940 2520 c0 -33 3 -40 20 -40 17 0 20 7 20 40 0 33 -3 40 -20 40
-17 0 -20 -7 -20 -40z"/>
<path d="M2280 2345 c0 -208 1 -215 20 -215 19 0 20 7 20 158 l0 157 41 -82
c23 -47 47 -83 55 -83 8 0 22 18 31 40 10 22 21 40 25 40 5 0 8 9 8 20 0 11 4
20 9 20 5 0 12 10 14 23 2 12 5 -49 6 -135 1 -151 2 -158 21 -158 19 0 20 7
20 215 0 208 -1 215 -20 215 -17 0 -20 -7 -20 -40 0 -33 -3 -40 -20 -40 -13 0
-20 -7 -20 -20 0 -11 -4 -20 -8 -20 -5 0 -14 -16 -22 -35 -8 -19 -19 -35 -25
-35 -6 0 -17 16 -25 35 -8 19 -17 35 -22 35 -4 0 -8 9 -8 20 0 13 -7 20 -20
20 -17 0 -20 7 -20 40 0 33 -3 40 -20 40 -19 0 -20 -7 -20 -215z"/>
<path d="M2850 2520 c0 -33 3 -40 20 -40 17 0 20 7 20 40 0 33 -3 40 -20 40
-17 0 -20 -7 -20 -40z"/>
<path d="M3110 2520 c0 -36 3 -40 25 -40 23 0 25 4 25 40 0 36 -2 40 -25 40
-22 0 -25 -4 -25 -40z"/>
<path d="M2960 2480 c0 -33 -3 -40 -20 -40 -13 0 -20 -7 -20 -20 0 -13 7 -20
20 -20 19 0 20 -7 20 -115 0 -108 1 -115 20 -115 13 0 20 -7 20 -20 0 -17 7
-20 40 -20 33 0 40 3 40 20 0 16 -7 20 -35 20 l-35 0 0 115 0 115 35 0 c28 0
35 4 35 20 0 16 -7 20 -35 20 -34 0 -35 1 -35 40 0 36 -2 40 -25 40 -22 0 -25
-4 -25 -40z"/>
<path d="M1630 2460 c0 -18 -7 -20 -55 -20 -42 0 -55 -3 -55 -15 0 -8 -9 -15
-20 -15 -18 0 -20 -7 -20 -85 0 -78 2 -85 20 -85 18 0 20 -7 20 -55 l0 -54 57
-3 57 -3 0 -35 0 -35 -77 -3 c-69 -3 -77 -5 -77 -22 0 -18 7 -20 80 -20 73 0
80 2 80 20 0 13 7 20 20 20 17 0 20 7 20 40 0 33 -4 40 -19 40 -10 0 -21 9
-24 20 -4 15 -14 20 -41 20 -29 0 -36 4 -36 20 0 17 7 20 40 20 27 0 40 4 40
14 0 7 9 16 20 19 18 5 20 14 20 82 0 68 -2 77 -20 82 -11 3 -20 12 -20 19 0
8 9 14 20 14 13 0 20 7 20 20 0 15 -7 20 -25 20 -18 0 -25 -5 -25 -20z m5
-135 l0 -75 -57 0 -58 0 0 75 0 75 58 0 57 0 0 -75z"/>
<path d="M1230 2285 l0 -155 25 0 25 0 0 115 c0 96 3 115 15 115 8 0 15 9 15
20 0 17 7 20 40 20 l40 0 0 -135 c0 -126 1 -135 19 -135 18 0 19 9 20 140 2
135 1 140 -19 140 -11 0 -20 7 -20 15 0 11 -11 15 -40 15 -29 0 -40 -4 -40
-15 0 -8 -7 -15 -15 -15 -8 0 -15 7 -15 15 0 9 -9 15 -25 15 l-25 0 0 -155z"/>
<path d="M1790 2425 c0 -8 -9 -15 -20 -15 -19 0 -20 -7 -20 -140 0 -133 1
-140 20 -140 19 0 20 7 20 135 l0 135 34 0 c33 0 35 -2 38 -37 2 -31 7 -39 26
-41 22 -3 23 0 20 40 -2 29 -7 42 -16 40 -8 -1 -16 7 -19 18 -4 16 -14 20 -44
20 -28 0 -39 -4 -39 -15z"/>
<path d="M1940 2284 c0 -143 1 -155 18 -152 15 3 17 20 20 156 2 147 2 152
-18 152 -19 0 -20 -6 -20 -156z"/>
<path d="M2640 2426 c0 -7 -9 -16 -20 -19 -19 -5 -20 -14 -20 -121 0 -109 1
-116 20 -116 13 0 20 -7 20 -20 0 -18 7 -20 60 -20 53 0 60 2 60 20 0 13 7 20
20 20 19 0 20 7 20 120 0 113 -1 120 -20 120 -11 0 -20 7 -20 15 0 12 -13 15
-60 15 -44 0 -60 -4 -60 -14z m120 -141 l0 -113 -55 -4 -55 -3 0 120 0 120 55
-3 55 -4 0 -113z"/>
<path d="M2850 2285 c0 -148 1 -155 20 -155 19 0 20 7 20 155 0 148 -1 155
-20 155 -19 0 -20 -7 -20 -155z"/>
<path d="M3110 2285 l0 -155 25 0 25 0 0 155 0 155 -25 0 -25 0 0 -155z"/>
<path d="M3200 2285 l0 -155 25 0 25 0 0 115 c0 108 1 115 20 115 13 0 20 7
20 20 0 16 7 20 35 20 l35 0 0 -135 c0 -128 1 -135 20 -135 19 0 20 7 20 140
0 118 -2 140 -15 140 -8 0 -15 7 -15 15 0 11 -12 15 -45 15 -33 0 -45 -4 -45
-15 0 -8 -7 -15 -15 -15 -8 0 -15 7 -15 15 0 9 -9 15 -25 15 l-25 0 0 -155z"/>
<path d="M3740 2425 c0 -8 -9 -15 -20 -15 -19 0 -20 -7 -20 -120 0 -113 1
-120 20 -120 13 0 20 -7 20 -20 0 -18 7 -20 60 -20 53 0 60 2 60 20 0 13 7 20
20 20 19 0 20 7 20 116 0 107 -1 116 -20 121 -11 3 -20 12 -20 19 0 10 -16 14
-60 14 -47 0 -60 -3 -60 -15z m114 -112 c-2 -156 4 -143 -59 -143 l-55 0 0
115 0 115 58 0 58 0 -2 -87z"/>
<path d="M2400 1880 c0 -27 -2 -29 -28 -24 -36 7 -54 -13 -54 -61 0 -49 16
-64 63 -62 l39 1 0 88 c0 52 -4 88 -10 88 -5 0 -10 -13 -10 -30z m-5 -85 c0
-33 -4 -41 -21 -43 -26 -4 -40 38 -24 69 19 35 45 19 45 -26z"/>
<path d="M3130 1900 c0 -5 9 -10 20 -10 18 0 20 -7 20 -61 0 -73 12 -99 45
-99 30 0 33 16 5 23 -18 5 -20 14 -20 81 l0 76 -35 0 c-19 0 -35 -4 -35 -10z"/>
<path d="M1230 1815 c0 -69 3 -85 15 -85 10 0 15 11 15 35 0 32 2 35 30 35 17
0 30 5 30 10 0 6 -14 10 -31 10 -27 0 -30 3 -27 28 2 22 8 28 36 30 51 5 37
22 -18 22 l-50 0 0 -85z"/>
<path d="M2590 1816 l0 -86 35 0 c48 0 85 37 85 83 0 49 -26 77 -78 84 l-42 6
0 -87z m82 40 c13 -19 8 -74 -8 -90 -31 -32 -44 -20 -44 42 0 32 3 61 6 65 8
7 37 -3 46 -17z"/>
<path d="M1800 1875 c0 -8 -7 -15 -15 -15 -8 0 -15 -4 -15 -10 0 -5 7 -10 15
-10 11 0 15 -11 15 -43 0 -24 5 -48 12 -55 15 -15 54 -16 63 -2 4 6 -5 10 -19
10 -24 0 -26 3 -26 45 0 38 3 45 20 45 11 0 20 5 20 10 0 6 -9 10 -20 10 -11
0 -20 7 -20 15 0 8 -7 15 -15 15 -8 0 -15 -7 -15 -15z"/>
<path d="M1360 1850 c0 -5 5 -10 10 -10 6 0 10 -20 10 -45 0 -25 -4 -45 -10
-45 -5 0 -10 -4 -10 -10 0 -5 16 -10 35 -10 19 0 35 5 35 10 0 6 -4 10 -10 10
-17 0 -11 57 7 71 13 11 17 11 20 2 8 -22 23 -14 23 12 0 30 -33 35 -49 8 -9
-17 -10 -17 -16 0 -7 18 -45 24 -45 7z"/>
<path d="M1518 1850 c-25 -15 -33 -66 -14 -95 21 -33 69 -34 90 -3 43 61 -14
134 -76 98z m58 -34 c9 -38 1 -61 -23 -64 -25 -4 -38 26 -29 64 8 32 43 32 52
0z"/>
<path d="M1640 1795 c0 -37 4 -65 10 -65 6 0 10 19 10 43 0 43 13 67 37 67 9
0 13 -17 13 -55 0 -42 3 -55 15 -55 11 0 15 12 15 49 0 27 -3 56 -6 65 -7 19
-45 21 -62 4 -9 -9 -12 -9 -12 0 0 7 -4 12 -10 12 -6 0 -10 -28 -10 -65z"/>
<path d="M2056 1838 c-44 -62 21 -138 84 -98 16 11 8 13 -29 10 -22 -2 -40 13
-41 33 0 4 18 7 40 7 36 0 40 3 40 25 0 45 -67 61 -94 23z m64 -2 c0 -2 3 -11
6 -20 5 -13 -1 -16 -25 -16 -29 0 -41 16 -24 33 7 8 43 10 43 3z"/>
<path d="M2180 1795 c0 -51 3 -65 15 -65 11 0 15 12 15 49 0 35 4 51 16 55 26
10 34 -3 34 -55 0 -38 4 -49 15 -49 13 0 15 11 13 56 -3 66 -23 88 -58 66 -12
-7 -20 -8 -20 -2 0 5 -7 10 -15 10 -12 0 -15 -14 -15 -65z"/>
<path d="M2747 1842 c-40 -44 -7 -117 49 -110 39 4 41 23 2 23 -23 0 -34 5
-36 18 -3 14 4 17 37 17 34 0 41 3 41 19 0 46 -62 67 -93 33z m66 -16 c7 -19
-1 -26 -30 -26 -22 0 -31 19 -16 33 11 12 41 7 46 -7z"/>
<path d="M2863 1848 c2 -7 13 -37 23 -65 13 -36 24 -53 36 -53 11 0 22 17 34
53 9 28 19 58 22 65 2 6 -3 12 -11 12 -10 0 -19 -17 -27 -50 -7 -27 -15 -48
-20 -45 -4 2 -13 25 -19 50 -7 30 -17 45 -27 45 -9 0 -14 -6 -11 -12z"/>
<path d="M3020 1840 c-54 -54 16 -142 80 -100 16 11 8 13 -29 10 -22 -2 -40
13 -41 33 0 4 20 7 44 7 41 0 44 2 39 23 -11 47 -59 61 -93 27z m60 -4 c0 -2
3 -11 6 -20 5 -13 -1 -16 -25 -16 -29 0 -41 16 -24 33 7 8 43 10 43 3z"/>
<path d="M3296 1844 c-23 -23 -21 -91 3 -104 47 -25 91 3 91 57 0 53 -59 83
-94 47z m59 -49 c0 -30 -4 -41 -17 -43 -26 -5 -44 39 -28 67 19 36 45 22 45
-24z"/>
<path d="M3420 1768 c0 -72 3 -88 15 -88 10 0 15 10 15 29 0 24 3 28 24 24 42
-8 71 60 46 107 -8 15 -20 19 -55 18 l-45 -2 0 -88z m75 27 c0 -34 -3 -40 -22
-43 -21 -3 -23 1 -23 36 0 43 7 54 30 50 10 -2 15 -15 15 -43z"/>
<path d="M3566 1838 c-44 -62 21 -138 84 -98 16 11 8 13 -29 10 -22 -2 -40 13
-41 33 0 4 20 7 44 7 41 0 44 2 39 23 -12 48 -70 63 -97 25z m64 -2 c0 -2 3
-11 6 -20 5 -13 -1 -16 -25 -16 -29 0 -41 16 -24 33 7 8 43 10 43 3z"/>
<path d="M3705 1795 l0 -65 33 0 c17 0 32 5 32 10 0 6 -7 10 -15 10 -20 0 -20
40 0 66 12 16 16 17 24 4 11 -17 16 -14 25 18 6 18 3 22 -13 22 -11 0 -26 -7
-34 -15 -13 -13 -16 -13 -21 0 -3 8 -11 15 -18 15 -9 0 -13 -19 -13 -65z"/>
<path d="M1910 1810 c0 -5 23 -10 50 -10 28 0 50 5 50 10 0 6 -22 10 -50 10
-27 0 -50 -4 -50 -10z"/>
</g>
</svg>
